<svg width="30" height="30" fill="none" xmlns="http://www.w3.org/2000/svg"><path d="M8.75 10.75a2.5 2.5 0 012.5-2.5h7.5a2.5 2.5 0 012.5 2.5V12a2.5 2.5 0 01-2.5 2.5h-7.5a2.5 2.5 0 01-2.5-2.5v-1.25zm2.5-.625a.624.624 0 00-.625.625V12a.624.624 0 00.625.625h7.5a.624.624 0 00.625-.625v-1.25a.624.624 0 00-.625-.625h-7.5zm-.938 10a1.563 1.563 0 100-3.126 1.563 1.563 0 000 3.126zm1.563 3.438a1.563 1.563 0 11-3.126 0 1.563 1.563 0 013.126 0zm7.813-3.438a1.563 1.563 0 100-3.126 1.563 1.563 0 000 3.126zm1.562 3.438a1.563 1.563 0 11-3.126 0 1.563 1.563 0 013.126 0zM15 20.125a1.563 1.563 0 100-3.126 1.563 1.563 0 000 3.126zm1.563 3.438a1.563 1.563 0 11-3.126 0 1.563 1.563 0 013.126 0zM9.063 4.5A4.062 4.062 0 005 8.563v16.874A4.063 4.063 0 009.063 29.5h11.874A4.063 4.063 0 0025 25.437V8.563A4.062 4.062 0 0020.937 4.5H9.063zM6.874 8.563c0-1.208.98-2.188 2.188-2.188h11.874c1.208 0 2.188.98 2.188 2.188v16.874a2.188 2.188 0 01-2.188 2.188H9.063a2.188 2.188 0 01-2.187-2.188V8.563z" fill="#fff"/></svg>