<svg width="70" height="70" fill="none" xmlns="http://www.w3.org/2000/svg"><g clip-path="url(#clip0)" fill="#FF6D1C"><path d="M37.253 4.458A30.618 30.618 0 0035 4.375V0c.86 0 1.72.033 2.577.096l-.324 4.362zm8.768 1.969a30.635 30.635 0 00-4.31-1.308l.958-4.27a34.58 34.58 0 014.927 1.496L46.02 6.427zm5.993 3.106a30.656 30.656 0 00-1.92-1.181l2.157-3.806a35.11 35.11 0 014.283 2.86l-2.69 3.453a30.571 30.571 0 00-1.83-1.322v-.004zm8.024 7.831a30.569 30.569 0 00-2.857-3.482l3.168-3.019a36.5 36.5 0 013.268 3.981l-3.579 2.52zm3.255 5.915c-.287-.693-.6-1.376-.936-2.047l3.907-1.969a34.9 34.9 0 011.969 4.76l-4.157 1.37a30.758 30.758 0 00-.783-2.114zm2.319 10.969a30.586 30.586 0 00-.438-4.485l4.31-.744c.293 1.69.464 3.404.507 5.12l-4.375.108h-.004zm-.573 6.728a32.63 32.63 0 00.354-2.231l4.344.538a34.82 34.82 0 01-1.006 5.053l-4.217-1.168c.201-.722.376-1.452.525-2.192zm-4.165 10.408A30.911 30.911 0 0063 47.412l3.999 1.772a35.317 35.317 0 01-2.428 4.541l-3.697-2.34zm-4.218 5.272a28.64 28.64 0 001.532-1.654l3.316 2.857a35.325 35.325 0 01-1.755 1.89l-3.093-3.093z"/><path d="M35.001 4.375a30.625 30.625 0 1021.656 52.281l3.093 3.093A35.005 35.005 0 1135.001 0v4.375z"/><path d="M32.813 13.125A2.188 2.188 0 0135 15.313v22.793l14.21 8.12a2.187 2.187 0 01-2.17 3.798l-15.313-8.75a2.188 2.188 0 01-1.102-1.899V15.312a2.188 2.188 0 012.188-2.187z"/></g><defs><clipPath id="clip0"><path fill="#fff" d="M0 0h70v70H0z"/></clipPath></defs></svg>