<svg width="21" height="21" fill="none" xmlns="http://www.w3.org/2000/svg"><g clip-path="url(#clip0)"><path d="M5.906 18.375h2.306a7.19 7.19 0 01-1.65-4.594c0-2.441 1.212-4.6 3.068-5.906H2.625v7.219a3.281 3.281 0 003.281 3.281zM18.375 6.563H2.625v-.657a3.281 3.281 0 013.281-3.281h9.188a3.281 3.281 0 013.281 3.281v.657z" fill="#FF6D1C"/><path d="M13.781 19.688a5.907 5.907 0 100-11.814 5.907 5.907 0 000 11.814zm-.656-8.532a.656.656 0 111.313 0v1.969h1.312a.656.656 0 110 1.313h-1.969a.656.656 0 01-.656-.657v-2.625z" fill="#FF6D1C"/><path fill="#C4C4C4" d="M3 20h23v3H3z"/></g><defs><clipPath id="clip0"><path fill="#fff" d="M0 0h21v21H0z"/></clipPath></defs></svg>