<svg width="75" height="75" fill="none" xmlns="http://www.w3.org/2000/svg"><path d="M75 35.574L58.571 18.918h-10.18v-8.133H0v42.727h14.915a9.393 9.393 0 00-.096 1.328c0 5.17 4.206 9.375 9.375 9.375 5.17 0 9.375-4.206 9.375-9.375 0-.45-.033-.894-.095-1.328h17.379a9.408 9.408 0 00-.096 1.328c0 5.17 4.205 9.375 9.375 9.375s9.375-4.206 9.375-9.375c0-.45-.034-.894-.096-1.328H75V35.574zM24.194 61.09a6.257 6.257 0 01-6.25-6.25 6.257 6.257 0 016.25-6.25 6.257 6.257 0 016.25 6.25 6.257 6.257 0 01-6.25 6.25zm21.071-42.172v31.47H32.443a9.383 9.383 0 00-8.249-4.923 9.383 9.383 0 00-8.248 4.922H3.126V13.91h42.14v5.008zM60.132 61.09a6.257 6.257 0 01-6.25-6.25 6.257 6.257 0 016.25-6.25 6.257 6.257 0 016.25 6.25 6.257 6.257 0 01-6.25 6.25zm11.743-10.703H68.38c-1.587-2.928-4.689-4.922-8.248-4.922a9.38 9.38 0 00-8.248 4.922H48.39V22.043h8.875l14.61 14.813v13.531z" fill="#FF6D1C"/><path d="M9.21 32.967h4.124v-1.45H9.21v-2.554h4.616l.013-1.463H7.641v9.298h1.57v-3.831zm8.034.705h2.062l2.221 3.126h1.995l-2.434-3.379c1.339-.399 2.009-1.365 2.009-2.9 0-1.055-.307-1.822-.918-2.301-.612-.479-1.628-.718-3.046-.718h-3.46v9.298h1.57v-3.126zm0-4.749h1.995c.842 0 1.427.113 1.755.34.329.225.493.642.493 1.25 0 .607-.16 1.049-.48 1.323-.318.275-.922.412-1.808.412h-1.955v-3.325zm14.804 6.398h-5.12v-2.487h4.455v-1.397h-4.456v-2.46h4.961V27.5h-6.53v9.298h6.69V35.32zm8.7 0h-5.12v-2.487h4.455v-1.397h-4.456v-2.46h4.961V27.5h-6.53v9.298h6.69V35.32z" fill="#FF6D1C"/></svg>