<svg width="20" height="20" fill="none" xmlns="http://www.w3.org/2000/svg"><g clip-path="url(#clip0)"><path d="M5.287 17.13l.327.16c1.362.809 2.888 1.186 4.414 1.186 4.796 0 8.72-3.878 8.72-8.619a8.6 8.6 0 00-2.562-6.086 8.708 8.708 0 00-6.158-2.532c-4.796 0-8.72 3.878-8.665 8.672 0 1.616.49 3.178 1.308 4.525l.218.323-.872 3.178 3.27-.808z" fill="#00E676"/><path d="M17.112 2.909C15.259 1.023 12.698 0 10.082 0 4.523 0 .055 4.47.109 9.911c0 1.724.49 3.394 1.308 4.902L0 19.93l5.286-1.346c1.472.808 3.106 1.185 4.741 1.185 5.505 0 9.973-4.471 9.973-9.912a9.718 9.718 0 00-2.888-6.948zm-7.03 15.19c-1.472 0-2.943-.377-4.196-1.131l-.327-.162-3.161.808.817-3.07-.218-.324C.6 10.396 1.744 5.333 5.667 2.963c3.924-2.37 8.993-1.24 11.39 2.639 2.398 3.878 1.254 8.888-2.67 11.258-1.253.808-2.78 1.239-4.305 1.239zm4.796-5.98l-.6-.268s-.872-.378-1.417-.647c-.054 0-.109-.054-.163-.054a.793.793 0 00-.382.108s-.054.054-.817.916a.3.3 0 01-.273.161h-.054a.416.416 0 01-.218-.107l-.273-.108c-.6-.27-1.144-.593-1.58-1.024-.11-.107-.273-.215-.382-.323-.381-.377-.763-.808-1.035-1.293l-.054-.107c-.055-.054-.055-.108-.11-.216 0-.107 0-.215.055-.27 0 0 .218-.268.381-.43.11-.108.164-.27.273-.377.109-.162.164-.377.109-.539-.054-.27-.708-1.723-.872-2.047-.109-.161-.218-.215-.381-.269h-.6c-.109 0-.218.054-.327.054l-.054.054c-.11.054-.218.161-.327.215-.11.108-.164.216-.273.323a2.727 2.727 0 00-.6 1.67c0 .431.11.862.273 1.24l.055.16a8.978 8.978 0 002.016 2.748l.218.215c.164.162.327.27.436.431a9.776 9.776 0 003.924 2.047c.163.054.381.054.545.108h.545c.272 0 .6-.108.817-.216.164-.107.273-.107.382-.215l.109-.108c.109-.107.218-.161.327-.27.109-.107.218-.214.272-.322.11-.216.164-.485.218-.754v-.377s-.054-.054-.163-.108z" fill="#fff"/></g><defs><clipPath id="clip0"><path fill="#fff" d="M0 0h20v20H0z"/></clipPath></defs></svg>