<svg width="63" height="63" fill="none" xmlns="http://www.w3.org/2000/svg"><g clip-path="url(#clip0)"><path d="M55.001 32.188l-9.603-1.276 6.377-29.111C51.925.9 51.25 0 50.275 0H12.76c-.976 0-1.65.9-1.5 1.8l6.452 29.112-9.679 1.276c-1.2.15-1.8 1.65-.825 2.55l11.33 10.88-2.852 15.606c-.225 1.276 1.125 2.176 2.176 1.576l13.655-7.503 13.656 7.578c-1.651-.976 2.175 1.725 2.175-1.576l-2.85-15.606 11.329-10.88c.9-.9.375-2.4-.826-2.625zM33.018 3h15.38l-6.077 27.536-2.776-.375-6.527-14.03V3.001zM14.636 3h15.38v13.13l-6.527 14.03-2.776.376L14.636 3zM41.87 44.042a1.513 1.513 0 00-.45 1.35l2.401 13.281-11.555-6.453a1.268 1.268 0 00-.75-.225c-.225 0-.525.076-.75.226l-11.63 6.452 2.401-13.28a1.513 1.513 0 00-.45-1.35l-9.529-9.304 13.13-1.726c.526-.075.976-.375 1.126-.825l5.702-12.155 5.627 12.155c.226.45.676.75 1.126.825l13.13 1.726-9.529 9.303z" fill="#FF6D1C"/></g><defs><clipPath id="clip0"><path fill="#fff" d="M0 0h63v63H0z"/></clipPath></defs></svg>