<svg width="65" height="65" fill="none" xmlns="http://www.w3.org/2000/svg"><g clip-path="url(#clip0)" fill="#FF6D1C"><path d="M63.728 31.252c-.7 0-1.27.567-1.27 1.268-.004 7.996-3.12 15.513-8.774 21.167-5.658 5.658-13.18 8.774-21.182 8.774-8.002 0-15.524-3.116-21.183-8.774-5.658-5.658-8.774-13.18-8.774-21.182 0-8.002 3.116-15.525 8.774-21.183a29.948 29.948 0 0134.425-5.697 1.27 1.27 0 001.123-2.278 32.488 32.488 0 00-37.342 6.18C3.387 15.665.007 23.825.007 32.505c0 8.68 3.38 16.84 9.517 22.977C15.662 61.62 23.822 65 32.502 65c8.68 0 16.84-3.38 22.978-9.517 6.133-6.134 9.513-14.288 9.517-22.961a1.27 1.27 0 00-1.269-1.27z"/><path d="M51.227 5.942l-.033-.023A1.27 1.27 0 1049.737 8l.03.02a1.268 1.268 0 101.46-2.077zm6.129 25.284c-.7 0-1.269.568-1.269 1.27v.077a1.27 1.27 0 001.264 1.275h.005a1.27 1.27 0 001.27-1.264v-.089a1.27 1.27 0 00-1.27-1.269zm-.272 5.177a1.27 1.27 0 00-1.503.98c-2.283 10.849-12 18.722-23.103 18.722-13.019 0-23.61-10.59-23.61-23.61 0-8.43 4.442-16.09 11.549-20.304a1.27 1.27 0 002.392.756l1.407-2.845a1.27 1.27 0 00-.576-1.7l-2.846-1.407a1.27 1.27 0 00-1.124 2.276l.402.199A26.096 26.096 0 006.329 32.495c0 14.419 11.73 26.149 26.149 26.149a26.195 26.195 0 0016.579-5.927c4.592-3.77 7.792-9.03 9.008-14.81a1.27 1.27 0 00-.98-1.504z"/><path d="M32.5 28.443a4.068 4.068 0 00-3.858 2.792H18.156a1.27 1.27 0 000 2.54h10.486a4.08 4.08 0 002.588 2.588V50.22a1.27 1.27 0 002.54 0V36.362a4.068 4.068 0 002.792-3.857 4.067 4.067 0 00-4.062-4.062zm0 5.585c-.84 0-1.523-.683-1.523-1.523 0-.84.683-1.523 1.523-1.523.84 0 1.523.683 1.523 1.523 0 .84-.683 1.523-1.523 1.523zm5.84-10.305h-2.474c1.764-1.771 3.743-4.332 3.743-6.909 0-2.512-1.688-4.2-4.2-4.2a4.205 4.205 0 00-4.201 4.2 1.27 1.27 0 002.539 0c0-.916.745-1.661 1.662-1.661 1.661 0 1.661 1.25 1.661 1.661 0 2.637-3.858 6.06-5.345 7.155a1.27 1.27 0 00.752 2.292h5.863a1.27 1.27 0 100-2.538zm13.182-5.55h-.197v-4.29a1.27 1.27 0 00-2.54 0v4.29h-3.421v-4.29a1.27 1.27 0 00-2.539 0v5.56c0 .7.569 1.269 1.27 1.269h4.69v4.302a1.27 1.27 0 002.54 0v-4.302h.197a1.27 1.27 0 000-2.539zm8.955.032c-.526 0-1.028.103-1.489.287v-4.609a1.27 1.27 0 10-2.539 0v11.109a1.27 1.27 0 002.539 0v-2.759a1.49 1.49 0 012.979 0v2.759a1.27 1.27 0 002.538 0v-2.759a4.033 4.033 0 00-4.028-4.028z"/></g><defs><clipPath id="clip0"><path fill="#fff" d="M0 0h65v65H0z"/></clipPath></defs></svg>