<svg width="25" height="25" viewBox="0 0 25 25" fill="none" xmlns="http://www.w3.org/2000/svg">
<path d="M19.7917 14.4064C19.7922 14.2508 19.7578 14.097 19.6912 13.9564C19.6245 13.8158 19.5271 13.6919 19.4062 13.5939L13.1563 8.56265C12.9699 8.40944 12.7361 8.32568 12.4948 8.32568C12.2535 8.32568 12.0197 8.40944 11.8333 8.56265L5.58334 13.771C5.37061 13.9478 5.23683 14.2019 5.21144 14.4773C5.18604 14.7528 5.27111 15.027 5.44792 15.2397C5.62473 15.4525 5.8788 15.5862 6.15425 15.6116C6.42969 15.637 6.70394 15.552 6.91667 15.3751L12.5 10.7189L18.0833 15.2189C18.2362 15.3463 18.4224 15.4272 18.6199 15.4521C18.8173 15.4769 19.0178 15.4447 19.1975 15.3593C19.3772 15.2738 19.5287 15.1386 19.634 14.9698C19.7393 14.8009 19.794 14.6054 19.7917 14.4064Z" fill="#FF6D1C"/>
</svg>
