<svg width="72" height="72" fill="none" xmlns="http://www.w3.org/2000/svg"><path d="M66.727 5.414h-33.75a5.28 5.28 0 00-5.274 5.274V25.38H15.796a1.055 1.055 0 100 2.11h11.907v3.731H10.631c-.489 0-.914.336-1.026.812a3.802 3.802 0 01-2.858 2.817 1.055 1.055 0 00-.825 1.03v20.208c0 .494.343.922.825 1.03a3.803 3.803 0 012.858 2.818c.112.476.537.812 1.026.812h17.072v.565c0 1.186.394 2.282 1.058 3.164H2.109V27.489h9.09a1.055 1.055 0 000-2.109H1.055C.472 25.38 0 25.852 0 26.435V65.53c0 .583.472 1.055 1.055 1.055h58.467a1.055 1.055 0 100-2.11H32.977a3.168 3.168 0 01-3.164-3.163V10.687a3.168 3.168 0 013.164-3.164h33.75a3.168 3.168 0 013.164 3.165v50.624a3.168 3.168 0 01-3.164 3.165h-2.608a1.055 1.055 0 100 2.109h2.608A5.28 5.28 0 0072 61.313V10.687a5.28 5.28 0 00-5.273-5.273zM8.03 55.308V36.66a5.944 5.944 0 003.37-3.33h16.302v25.31H11.401a5.946 5.946 0 00-3.37-3.331z" fill="#FF6D1C"/><path d="M65.672 24.75V12.094c0-.583-.472-1.055-1.055-1.055h-7.363a1.055 1.055 0 100 2.11h6.309v10.546H36.14V13.148h16.516a1.055 1.055 0 100-2.109h-17.57c-.582 0-1.055.472-1.055 1.055V24.75c0 .582.473 1.055 1.055 1.055h29.531c.583 0 1.055-.473 1.055-1.055zm-23.906 5.631c0-.582-.473-1.054-1.055-1.054h-5.625c-.582 0-1.055.472-1.055 1.054v5.625c0 .583.473 1.055 1.055 1.055h5.625c.582 0 1.055-.472 1.055-1.055v-5.625zm-2.11 4.57h-3.515v-3.515h3.515v3.516zm24.961-5.624h-5.625c-.582 0-1.054.472-1.054 1.054v5.625c0 .583.472 1.055 1.054 1.055h5.625c.583 0 1.055-.472 1.055-1.055v-5.625c0-.582-.472-1.054-1.055-1.054zm-1.055 5.625h-3.515v-3.516h3.516v3.516zm-9.843-4.571c0-.582-.473-1.054-1.055-1.054H47.04c-.582 0-1.055.472-1.055 1.054v5.625c0 .583.473 1.055 1.055 1.055h5.625c.582 0 1.055-.472 1.055-1.055v-5.625zm-2.11 4.57h-3.515v-3.515h3.515v3.516zm-9.843 6.668c0-.583-.473-1.055-1.055-1.055h-5.625c-.582 0-1.055.472-1.055 1.055v5.625c0 .582.473 1.054 1.055 1.054h5.625c.582 0 1.055-.472 1.055-1.054v-5.625zm-2.11 4.57h-3.515v-3.516h3.515v3.516zm19.336 13.346h5.625c.583 0 1.055-.472 1.055-1.054V41.619c0-.583-.472-1.055-1.055-1.055h-5.625c-.582 0-1.054.472-1.054 1.055V58.48c0 .582.472 1.054 1.054 1.054zm1.055-16.862h3.516v14.753h-3.516V42.673zm-6.328-1.054c0-.583-.473-1.055-1.055-1.055H47.04c-.582 0-1.055.472-1.055 1.055v5.625c0 .582.473 1.054 1.055 1.054h5.625c.582 0 1.055-.472 1.055-1.054v-5.625zm-2.11 4.57h-3.515v-3.516h3.515v3.516zM40.71 51.801h-5.624c-.582 0-1.055.472-1.055 1.055v5.625c0 .582.473 1.054 1.055 1.054h5.625c.582 0 1.055-.472 1.055-1.054v-5.625c0-.583-.473-1.055-1.055-1.055zm-1.054 5.625h-3.515V53.91h3.515v3.516zm13.008-5.625H47.04c-.582 0-1.055.472-1.055 1.055v5.625c0 .582.473 1.054 1.055 1.054h5.625c.582 0 1.055-.472 1.055-1.054v-5.625c0-.583-.473-1.055-1.055-1.055zm-1.055 5.625h-3.515V53.91h3.515v3.516zM16.588 41.824a4.165 4.165 0 00-4.16 4.16 4.165 4.165 0 004.16 4.16 4.165 4.165 0 004.16-4.16 4.165 4.165 0 00-4.16-4.16zm0 6.21c-1.131 0-2.05-.92-2.05-2.05s.919-2.05 2.05-2.05c1.13 0 2.05.92 2.05 2.05s-.92 2.05-2.05 2.05z" fill="#FF6D1C"/></svg>