<svg width="17" height="17" fill="none" xmlns="http://www.w3.org/2000/svg"><path d="M5.287 4.474c.167-.868.394-1.648.666-2.307.299-.729.644-1.286 1.002-1.653C7.31.148 7.648 0 7.953 0c.305 0 .642.148.998.514.358.368.703.924 1.002 1.653.272.66.5 1.439.666 2.307H5.287zm-.254-2.685A7.145 7.145 0 015.855.28 7.973 7.973 0 00.8 4.473h3.477c.18-1.002.438-1.911.757-2.685zm5.84 0A7.149 7.149 0 0010.05.28a7.972 7.972 0 015.056 4.195H11.63c-.18-1.002-.438-1.911-.757-2.685zm.907 3.679h3.73c.273.83.406 1.7.396 2.574a4.655 4.655 0 00-3.995-.973 19.865 19.865 0 00-.13-1.601zm-3.566 5.964a4.997 4.997 0 00-.013.355c0 1.084.412 2.124 1.137 3.126-.115.17-.245.33-.387.479-.356.366-.693.514-.998.514-.305 0-.642-.148-.998-.514-.358-.368-.703-.925-1.003-1.653a12.138 12.138 0 01-.665-2.307h2.927zm.175-.994a4.817 4.817 0 012.54-3.029 19.02 19.02 0 00-.15-1.941H5.127a19.323 19.323 0 00-.156 2.485c0 .87.055 1.704.157 2.485h3.261zm-7.59.994a7.972 7.972 0 005.057 4.194 7.142 7.142 0 01-.823-1.509 13.426 13.426 0 01-.757-2.685H.799zm3.327-.994H.396A7.945 7.945 0 010 7.953c0-.868.14-1.703.396-2.485h3.73c-.098.79-.15 1.624-.15 2.485 0 .86.052 1.695.15 2.485zm8.798-2.485c2.058 0 3.727 1.717 3.727 3.834 0 1.588-1.176 3.251-3.479 5.027a.404.404 0 01-.497 0c-2.303-1.776-3.48-3.44-3.48-5.027 0-2.117 1.67-3.834 3.729-3.834zm0 2.556c-.686 0-1.243.572-1.243 1.278 0 .706.557 1.279 1.243 1.279s1.242-.573 1.242-1.279-.556-1.278-1.242-1.278z" fill="#FF6D1C"/></svg>