<svg width="133" height="133" fill="none" xmlns="http://www.w3.org/2000/svg"><circle cx="67" cy="68" r="35" fill="#EB5757"/><path d="M103.352 15.794l3.38 21.39 19.452 9.92-9.809 19.396 9.864 19.396-19.617 9.92-3.381 21.39-21.557-3.38-15.35 15.295-15.406-15.517-21.391 3.547-3.436-21.557-19.34-9.864 9.864-19.396-9.809-19.23 19.451-10.03 3.38-21.225 21.447 3.547L66.5 3.824l15.35 15.35 21.502-3.38zM52.646 38.792a8.313 8.313 0 100 16.625 8.313 8.313 0 000-16.625zm27.708 38.791a8.313 8.313 0 100 16.626 8.313 8.313 0 000-16.626zM46.605 94.208l47.603-47.603-7.814-7.813-47.602 47.603 7.813 7.813z" fill="#EB5757"/><path d="M49.625 41.34v4.2c2.16-1.65 4.56-2.43 6.6-2.43 2.07 0 3.39.78 3.39 2.28 0 1.95-1.83 2.76-3.96 3.99-3 1.77-6.72 3.69-6.72 8.61V60h15.3v-3.87l-10.2.03c.03-1.32 2.1-2.43 4.53-3.87 2.67-1.59 5.52-3.63 5.52-7.08 0-4.17-3.33-6.03-7.44-6.03-2.49 0-4.92.66-7.02 2.16zm27.171-1.74l-10.53 12.96v3.72h10.71V60h4.29v-3.72h3.09v-3.75h-3.09V39.6h-4.47zm.18 12.93h-6.03l6.03-7.44v7.44zM48.528 90V75.6h-4.14v6.54c-.78.33-1.59.45-2.55.45-1.53 0-2.58-.54-2.58-2.25V75.6h-4.17v5.13c0 3.72 2.52 5.37 5.61 5.37 1.44 0 2.55-.18 3.69-.6V90h4.14zm16.41-3.72v-4.59c0-4.74-2.76-6.51-7.08-6.51-2.22 0-4.41.57-5.58.96v3.6c1.35-.54 3.12-1.08 5.1-1.08 2.25 0 3.39.99 3.39 2.43v.51a15.71 15.71 0 00-3.42-.39c-2.88 0-6.33 1.14-6.33 4.8 0 2.85 2.34 4.41 5.04 4.41 2.13 0 3.78-.66 5.19-1.77.6 1.08 1.71 1.62 3.18 1.62.81 0 1.65-.18 2.31-.42v-2.73c-.27.09-.54.12-.78.12-.54 0-1.02-.21-1.02-.96zm-6.63-2.58c.87 0 1.83.18 2.46.33v2.25c-.96.84-2.07 1.17-3.24 1.17-1.26 0-2.25-.69-2.25-1.77 0-1.47 1.5-1.98 3.03-1.98zm9.855-.69c0 5.13 3.93 7.41 7.86 7.41 1.83 0 3.45-.36 4.86-.96v-3.69c-1.05.63-2.52 1.05-4.05 1.05-2.25 0-4.41-1.26-4.41-4.02 0-2.91 2.19-4.02 4.47-4.02 1.38 0 2.82.42 3.84 1.08V76.2c-1.29-.69-2.85-1.05-4.44-1.05-3.99 0-8.13 2.34-8.13 7.86zm28.475 3.27v-4.59c0-4.74-2.76-6.51-7.08-6.51-2.22 0-4.41.57-5.58.96v3.6c1.35-.54 3.12-1.08 5.1-1.08 2.25 0 3.39.99 3.39 2.43v.51a15.71 15.71 0 00-3.42-.39c-2.88 0-6.33 1.14-6.33 4.8 0 2.85 2.34 4.41 5.04 4.41 2.13 0 3.78-.66 5.19-1.77.6 1.08 1.71 1.62 3.18 1.62.81 0 1.65-.18 2.31-.42v-2.73c-.27.09-.54.12-.78.12-.54 0-1.02-.21-1.02-.96zm-6.63-2.58c.87 0 1.83.18 2.46.33v2.25c-.96.84-2.07 1.17-3.24 1.17-1.26 0-2.25-.69-2.25-1.77 0-1.47 1.5-1.98 3.03-1.98z" fill="#fff"/></svg>