<svg width="70" height="70" fill="none" xmlns="http://www.w3.org/2000/svg"><path d="M32.705 44.849l14.842-19.351L37.469 47.71a2.795 2.795 0 11-5.091-2.315 2.81 2.81 0 01.327-.546z" fill="#FF6D1C"/><path d="M64.048 61.209H5.954a1.67 1.67 0 01-1.422-.796C1.61 55.64 0 49.635 0 43.5 0 24.362 15.701 8.792 35.001 8.792 54.3 8.792 70 24.409 70 43.604c0 6.156-1.567 11.968-4.531 16.808a1.667 1.667 0 01-1.421.797zm-57.14-3.336h56.186c2.34-4.152 3.573-9.064 3.573-14.269 0-17.357-14.205-31.478-31.666-31.478C17.54 12.128 3.333 26.2 3.333 43.5c0 5.188 1.265 10.253 3.575 14.373z" fill="#FF6D1C"/><path d="M35.077 19.513c-.92 0-1.667-.747-1.667-1.668v-6.672a1.667 1.667 0 113.334 0v6.672c0 .92-.746 1.668-1.667 1.668zM9.604 42.306H1.826a1.668 1.668 0 010-3.335h7.778a1.668 1.668 0 010 3.335zm57.777 0h-7.778a1.668 1.668 0 010-3.335h7.778a1.667 1.667 0 010 3.335z" fill="#FF6D1C"/></svg>